<?xml version="1.0" standalone="no"?>
<!DOCTYPE svg PUBLIC "-//W3C//DTD SVG 20010904//EN"
 "http://www.w3.org/TR/2001/REC-SVG-20010904/DTD/svg10.dtd">
<svg version="1.0" xmlns="http://www.w3.org/2000/svg"
 width="512.000000pt" height="512.000000pt" viewBox="0 0 512.000000 512.000000"
 preserveAspectRatio="xMidYMid meet">
<metadata>
Created by potrace 1.11, written by Peter Selinger 2001-2013
</metadata>
<g transform="translate(0.000000,512.000000) scale(0.100000,-0.100000)"
fill="#000000" stroke="none">
<path d="M555 5104 c-38 -8 -113 -35 -165 -61 -79 -39 -109 -61 -181 -132 -71
-72 -93 -102 -132 -181 -83 -169 -77 -9 -77 -2170 0 -2161 -6 -2001 77 -2170
39 -79 61 -109 132 -181 72 -71 102 -93 181 -132 169 -83 9 -77 2170 -77 2161
0 2001 -6 2170 77 79 39 109 61 181 132 71 72 93 102 132 181 83 169 77 9 77
2170 0 2161 6 2001 -77 2170 -39 79 -61 109 -132 181 -72 71 -102 93 -181 132
-169 83 -8 77 -2177 76 -1637 -1 -1939 -3 -1998 -15z m415 -2529 l0 -985 -120
0 -120 0 0 985 0 985 120 0 120 0 0 -985z m1165 359 c164 -43 311 -165 384
-316 59 -122 75 -198 74 -358 0 -155 -19 -243 -76 -357 -112 -221 -322 -344
-590 -344 -184 1 -324 56 -443 175 -81 81 -121 147 -160 261 -22 66 -28 103
-32 211 -9 254 53 430 205 579 66 65 203 137 293 154 30 6 64 13 75 15 38 9
210 -4 270 -20z m1487 -4 c143 -44 257 -156 317 -310 39 -100 51 -172 51 -302
l0 -108 -476 0 -476 0 7 -52 c38 -303 230 -440 570 -408 58 6 140 21 182 35
43 13 78 23 79 22 0 -1 10 -39 21 -84 l21 -82 -52 -20 c-117 -43 -204 -56
-381 -56 -157 1 -176 3 -251 28 -202 67 -347 227 -401 442 -26 104 -23 323 6
429 72 269 249 441 498 486 71 13 210 3 285 -20z m846 -1057 c43 -32 65 -79
66 -142 1 -104 -62 -171 -163 -171 -106 0 -170 76 -159 191 6 56 28 92 79 127
28 20 44 23 92 20 37 -3 67 -11 85 -25z"/>
<path d="M1860 2767 c-121 -28 -207 -101 -264 -221 -48 -101 -61 -164 -61
-296 1 -221 85 -389 237 -471 60 -33 67 -34 168 -34 96 0 110 2 159 28 190
100 287 356 236 623 -32 167 -131 309 -246 352 -74 27 -161 34 -229 19z"/>
<path d="M3365 2779 c-97 -13 -198 -85 -249 -178 -32 -60 -66 -155 -66 -188
l0 -23 356 0 357 0 -6 64 c-21 226 -176 354 -392 325z"/>
</g>
</svg>
